<?xml version="1.0" standalone="no"?>
<!DOCTYPE svg PUBLIC "-//W3C//DTD SVG 20010904//EN"
 "http://www.w3.org/TR/2001/REC-SVG-20010904/DTD/svg10.dtd">
<svg version="1.0" xmlns="http://www.w3.org/2000/svg"
 width="500.000000pt" height="500.000000pt" viewBox="0 0 500.000000 500.000000"
 preserveAspectRatio="xMidYMid meet">
<metadata>
Created by potrace 1.14, written by Peter Selinger 2001-2017
</metadata>
<g transform="translate(0.000000,500.000000) scale(0.100000,-0.100000)"
fill="#000000" stroke="none">
<path d="M1440 3175 c0 -8 13 -21 29 -30 43 -22 90 -85 168 -225 69 -122 71
-125 107 -128 31 -3 35 -6 25 -18 -8 -10 -8 -18 -1 -27 20 -24 11 -75 -20
-103 -32 -32 -35 -44 -11 -44 9 0 13 3 10 7 -8 7 21 43 36 43 5 0 6 -7 3 -16
-3 -8 -2 -13 3 -9 5 3 28 -29 50 -70 l41 -74 0 -208 c-1 -240 -7 -288 -44
-320 -14 -12 -26 -27 -26 -33 0 -6 51 -10 145 -10 94 0 145 4 145 10 0 6 -11
21 -26 33 -37 32 -43 79 -44 317 l0 215 157 280 c115 204 171 294 208 333 56
57 73 62 101 31 18 -20 19 -47 25 -438 7 -443 9 -462 61 -565 51 -100 171
-187 298 -216 30 -7 57 -16 60 -20 9 -13 213 10 278 31 55 18 149 79 167 109
13 21 -28 9 -63 -20 -81 -64 -209 -95 -307 -73 l-40 9 45 45 c25 25 63 60 85
78 31 26 33 28 7 11 -18 -12 -60 -47 -92 -76 -32 -30 -64 -54 -71 -54 -58 1
-180 99 -218 175 -50 100 -53 129 -58 495 -6 411 1 481 48 523 19 18 28 32 22
38 -5 5 -106 8 -238 7 -228 -3 -268 -10 -210 -36 30 -14 33 -53 10 -110 -22
-51 -276 -502 -284 -502 -13 0 -91 159 -81 165 6 3 7 11 4 17 -4 7 -9 6 -14
-2 -4 -7 -18 8 -37 42 l-31 53 39 42 c22 24 39 51 39 60 0 12 -6 7 -16 -13
-19 -38 -61 -80 -71 -71 -4 4 11 26 33 50 36 39 36 39 4 9 -20 -17 -40 -32
-45 -32 -14 1 -145 243 -145 268 0 11 7 25 16 30 41 23 0 32 -137 32 -116 0
-139 -2 -139 -15z"/>
<path d="M3344 3178 c-4 -6 -3 -13 2 -15 34 -11 73 -46 90 -79 17 -35 19 -66
22 -324 l2 -285 -72 -76 c-40 -41 -84 -83 -98 -93 l-25 -18 28 16 c15 9 27 14
27 10 0 -10 -132 -178 -152 -192 -10 -7 -18 -19 -18 -25 0 -7 -27 -43 -60 -80
-33 -38 -60 -71 -60 -74 0 -12 36 26 126 129 50 59 94 105 96 102 3 -2 5 2 5
9 0 14 159 223 187 246 15 12 16 6 16 -68 0 -65 3 -81 15 -81 13 0 15 46 15
353 0 415 6 470 50 510 17 15 28 32 25 37 -9 15 -212 13 -221 -2z"/>
<path d="M1116 2919 c-62 -41 -125 -126 -132 -176 l-6 -38 26 52 c27 58 104
145 151 174 17 11 25 19 19 19 -6 0 -32 -14 -58 -31z"/>
<path d="M860 2926 c0 -11 80 -56 101 -55 l24 0 -23 10 c-13 5 -35 18 -49 29
-22 17 -53 27 -53 16z"/>
<path d="M1213 2881 c-13 -25 -52 -82 -88 -126 -73 -88 -121 -162 -111 -172 3
-4 6 -1 6 5 0 6 39 57 86 114 84 101 138 188 132 212 -2 7 -13 -8 -25 -33z"/>
<path d="M1356 2866 c-82 -93 -179 -234 -190 -276 -5 -18 -1 -16 13 10 11 19
69 97 130 173 98 122 122 157 107 157 -2 0 -30 -29 -60 -64z"/>
<path d="M1018 2901 c-16 -10 -25 -20 -22 -23 8 -9 -246 -268 -263 -268 -7 0
-23 16 -35 36 -15 26 -23 32 -29 22 -11 -17 -11 -115 -1 -122 5 -3 7 18 4 47
l-4 52 28 -27 c28 -27 28 -27 9 -50 l-19 -23 23 22 c20 18 28 19 52 11 19 -7
42 -7 67 0 37 10 37 10 -20 11 -32 1 -58 3 -58 6 0 2 73 76 163 164 147 145
180 190 105 142z"/>
<path d="M1572 2913 c-6 -3 -10 -9 -6 -14 3 -5 -19 -35 -48 -66 l-52 -58 53
50 c66 63 89 101 53 88z"/>
<path d="M781 2875 c-30 -35 -41 -75 -20 -75 5 0 7 4 4 10 -7 12 10 47 38 78
11 12 18 22 15 22 -3 0 -20 -16 -37 -35z"/>
<path d="M1476 2839 c-86 -79 -183 -199 -178 -221 4 -19 27 -24 37 -8 3 6 -1
7 -9 4 -23 -9 -20 9 7 42 12 16 27 36 34 44 6 8 51 57 99 108 48 50 85 92 82
92 -3 0 -35 -27 -72 -61z"/>
<path d="M1429 2753 l-24 -28 28 24 c25 23 32 31 24 31 -2 0 -14 -12 -28 -27z"/>
<path d="M1708 2699 c-23 -28 -51 -55 -61 -61 -17 -8 -18 -7 -12 14 4 12 15
35 26 51 11 15 17 27 13 27 -13 0 -50 -36 -47 -46 2 -6 -8 -28 -22 -49 -18
-25 -21 -36 -11 -31 9 3 23 9 33 13 11 4 14 3 9 -5 -11 -18 3 -14 30 7 13 10
21 21 18 24 -4 3 15 26 40 51 26 24 42 47 37 50 -5 4 -29 -17 -53 -45z"/>
<path d="M1526 2719 c3 -6 -7 -25 -24 -42 -33 -35 -50 -77 -32 -77 6 0 9 4 6
8 -3 5 15 33 39 61 25 29 45 55 45 57 0 2 -9 4 -21 4 -12 0 -17 -4 -13 -11z"/>
<path d="M1465 2702 c-37 -23 -58 -48 -62 -72 -5 -32 14 -32 20 0 4 19 21 40
48 60 46 33 42 41 -6 12z"/>
<path d="M1129 2653 c-13 -16 -12 -17 4 -4 9 7 17 15 17 17 0 8 -8 3 -21 -13z"/>
<path d="M1360 2645 c0 -8 7 -15 16 -15 14 0 14 3 4 15 -7 8 -14 15 -16 15 -2
0 -4 -7 -4 -15z"/>
<path d="M1549 2658 c-7 -26 -6 -48 3 -54 7 -5 8 -3 3 6 -4 7 -2 16 6 21 11 7
11 9 1 9 -7 0 -10 5 -7 10 3 6 4 10 1 10 -3 0 -6 -1 -7 -2z"/>
<path d="M1210 2590 c-19 -11 -31 -19 -27 -20 11 0 67 29 67 35 0 7 -1 7 -40
-15z"/>
<path d="M3256 2411 c-32 -33 -76 -67 -97 -77 -22 -9 -37 -19 -35 -21 2 -3 18
3 35 12 34 17 37 12 16 -25 -20 -36 -18 -50 8 -49 16 1 18 2 5 6 -16 4 -17 7
-3 34 9 16 45 60 80 98 36 38 65 71 65 75 0 16 -20 1 -74 -53z"/>
<path d="M3088 2304 c-3 -3 -24 -5 -47 -6 -23 0 -44 -5 -48 -11 -4 -7 9 -8 41
-4 43 6 96 26 70 27 -6 0 -13 -3 -16 -6z"/>
<path d="M3695 2280 c-3 -5 1 -10 9 -10 9 0 16 5 16 10 0 6 -4 10 -9 10 -6 0
-13 -4 -16 -10z"/>
<path d="M3765 2280 c-3 -5 1 -10 9 -10 9 0 16 5 16 10 0 6 -4 10 -9 10 -6 0
-13 -4 -16 -10z"/>
<path d="M3446 2210 c-19 -17 -42 -45 -51 -62 -18 -37 -18 -38 -5 -38 6 0 10
5 10 12 0 7 21 34 47 60 53 54 53 75 -1 28z"/>
<path d="M3583 2220 c-29 -17 -33 -18 -33 -4 0 12 -8 8 -29 -12 -15 -16 -39
-37 -52 -47 -24 -19 -24 -19 6 -2 l30 18 -29 -32 c-17 -17 -25 -31 -19 -31 6
0 28 19 50 43 49 52 66 57 58 20 -5 -25 -4 -24 10 6 8 19 23 40 33 47 26 20
11 17 -25 -6z"/>
<path d="M3622 2195 c-42 -46 -61 -85 -43 -85 6 0 11 5 11 11 0 7 21 36 46 65
55 65 44 72 -14 9z"/>
<path d="M3692 2195 c-42 -46 -61 -85 -43 -85 6 0 11 5 11 11 0 7 21 36 46 65
55 65 44 72 -14 9z"/>
<path d="M3362 2200 c-18 -17 -30 -30 -27 -30 4 0 -1 -10 -9 -22 -32 -46 -14
-38 29 13 38 45 54 70 43 69 -2 0 -18 -14 -36 -30z"/>
</g>
</svg>
